<svg id="图层_1" data-name="图层 1" xmlns="http://www.w3.org/2000/svg" viewBox="0 0 624.09 166.52"><defs><style>.cls-1{fill:#000100;}.cls-2,.cls-3{fill:none;stroke:#fff;stroke-width:0.57px;}.cls-2{stroke-miterlimit:3.86;}</style></defs><title>qmul-logo</title><g id="_Group_" data-name="&lt;Group&gt;"><path class="cls-1" d="M254.81,126.32c-6.14,0-12.77-2.24-16.47-8.87a24.25,24.25,0,0,1-13.84,4c-17.64,0-27.78-15.4-27.78-36.16s10.14-36.15,27.78-36.15,27.77,15.39,27.77,36.15c0,11.9-3.3,22-9.54,28.46,3,5.26,5.94,6.72,12.08,6.72ZM226.35,98.84c5.56,1,10.14,4.09,13.65,9.35,3.8-5.26,5.84-13,5.84-22.9,0-19.78-8.37-30.89-21.34-30.89s-21.34,11.11-21.34,30.89,8.38,30.89,21.34,30.89a18.25,18.25,0,0,0,11.11-3.5c-3-5.17-5.26-6.92-9.26-7.51Z" transform="translate(-14.31 -13.28)"/><path id="_Path_" data-name="&lt;Path&gt;" class="cls-1" d="M295.45,69.8v50.67H289.6v-8c-5.46,5.64-9.94,9-17.35,9-10.52,0-15-6-15-17V69.8h5.85v34c0,8.38,2.54,13,10.33,13,6.24,0,9.75-3.8,16.18-9.65V69.8Z" transform="translate(-14.31 -13.28)"/><path class="cls-1" d="M306,95.33c0,11.5,4.78,21.44,16.28,21.44,6.53,0,9.74-2.24,14.81-10.23l4.78,2.53c-5.46,9-10.43,12.37-20.08,12.37-13.26,0-21.63-8.47-21.63-26.3,0-15.69,8-26.32,20.85-26.32,13.75,0,20.27,10.82,20.27,26.51Zm29.43-4.68c-1.16-10.42-5.74-17.05-14.61-17.15-10.33-.1-14.72,10.43-14.82,17.15Z" transform="translate(-14.31 -13.28)"/><path class="cls-1" d="M351.78,95.33c0,11.5,4.77,21.44,16.27,21.44,6.53,0,9.75-2.24,14.81-10.23l4.78,2.53c-5.45,9-10.43,12.37-20.07,12.37-13.26,0-21.64-8.47-21.64-26.3,0-15.69,8-26.32,20.86-26.32,13.74,0,20.27,10.82,20.27,26.51Zm29.43-4.68C380,80.23,375.46,73.6,366.59,73.5c-10.33-.1-14.72,10.43-14.81,17.15Z" transform="translate(-14.31 -13.28)"/><path id="_Path_2" data-name="&lt;Path&gt;" class="cls-1" d="M392.32,120.47V69.79h5.85v8c5.45-5.65,9.94-9,17.34-9,10.53,0,15,6,15,17.05v34.6h-5.84v-34c0-8.38-2.53-13-10.33-13-6.24,0-9.75,3.8-16.18,9.65v37.32Z" transform="translate(-14.31 -13.28)"/><polygon id="_Path_3" data-name="&lt;Path&gt;" class="cls-1" points="446.43 107.2 446.43 36.83 457.73 36.83 477.13 96.48 477.32 96.48 496.81 36.83 508.12 36.83 508.12 107.2 501.69 107.2 501.69 42.1 501.49 42.1 480.34 107.2 474.2 107.2 453.06 42.1 452.86 42.1 452.86 107.2 446.43 107.2"/><path class="cls-1" d="M560,120.47l-.78-6.13c-6,4.77-10.62,7.1-18.41,7.1s-13.94-4.86-13.94-13.25c0-13.83,11.3-16.37,32.45-21V83.63c0-6.72-2.92-10.13-11.6-10.13-6,0-11,3.31-14.71,9.16l-3.9-2.34c4.38-8.18,10.62-11.5,18.8-11.5,11.5,0,17,4.68,17,15.89v26.51a56.77,56.77,0,0,0,.78,9.25Zm-1-28.65c-23.2,5.07-26.32,9.84-26.32,16.28,0,5.55,3.8,8.67,9.07,8.67,5.46,0,12.18-3.22,17.25-8.38Z" transform="translate(-14.31 -13.28)"/><path id="_Path_4" data-name="&lt;Path&gt;" class="cls-1" d="M571,120.47V69.79h5.84v9.65h.2c2.72-6.23,8.19-10.62,14.62-10.62h2.63v5.66h-2.63c-6.43,0-14.82,7.59-14.82,17.34v28.65Z" transform="translate(-14.31 -13.28)"/><path id="_Path_5" data-name="&lt;Path&gt;" class="cls-1" d="M617.83,111h.2L632.15,69.8h6.24l-18.91,54.28c-3.4,9.94-7,14.33-16.17,14.33a19.27,19.27,0,0,1-5.46-.59v-4.77a45.4,45.4,0,0,0,5.85.68c4.09,0,8.58-3.61,11.4-14L597.46,69.8h6.44Z" transform="translate(-14.31 -13.28)"/><path id="_Path_6" data-name="&lt;Path&gt;" class="cls-1" d="M204.88,141.77v21c0,2.87,1.25,4.37,4,4.37s4.07-1.5,4.07-4.37v-21h5.75v21c0,6.61-3.91,9.41-9.82,9.41s-9.78-2.8-9.78-9.41v-21Z" transform="translate(-14.31 -13.28)"/><path id="_Path_7" data-name="&lt;Path&gt;" class="cls-1" d="M222.07,171.81V149.17h5.07v2.59c1.91-1.67,3.7-3,5.87-3,3.2,0,4.87,1.62,4.87,5.83v17.22h-5.25V155.16c0-1.49-.49-2.49-1.91-2.49-1.08,0-2.29,1-3.41,2v17.1Z" transform="translate(-14.31 -13.28)"/><path class="cls-1" d="M241,140.52h5.24v4.75H241Zm5.24,31.29H241V149.18h5.25Z" transform="translate(-14.31 -13.28)"/><polygon id="_Path_8" data-name="&lt;Path&gt;" class="cls-1" points="243.08 150.46 243.16 150.46 246.62 135.9 251.86 135.9 245.7 158.53 240.55 158.53 234.39 135.9 239.63 135.9 243.08 150.46"/><path class="cls-1" d="M271.91,161.74v3A2.89,2.89,0,0,0,275,168a2.84,2.84,0,0,0,3.08-3.16h5.24c-.25,4.66-3,7.41-8.32,7.41-5,0-8.32-3.08-8.32-8v-7.41c0-4.95,3.33-8,8.32-8s8.32,3.08,8.32,7.7v5.28Zm6.16-4.24v-1.25c0-2-1-3.24-3.08-3.24s-3.08,1.24-3.08,3.24v1.25Z" transform="translate(-14.31 -13.28)"/><path id="_Path_9" data-name="&lt;Path&gt;" class="cls-1" d="M286.22,171.81V149.17h5.12v3h.08a5.65,5.65,0,0,1,5.41-3.41v5.66a10.67,10.67,0,0,0-2.79-.58,2.47,2.47,0,0,0-2.58,2.49v15.48Z" transform="translate(-14.31 -13.28)"/><path id="_Path_10" data-name="&lt;Path&gt;" class="cls-1" d="M309.64,156.08c-.7-2.08-2-3.07-3.62-3.07a2,2,0,0,0-2.12,2c0,3.49,10.24,3.58,10.24,10.32,0,4.5-3.16,6.87-7.53,6.87-3.16,0-6-.79-8.53-6.45l4.7-1.29c.46,2.12,1.75,3.49,3.83,3.49,1.58,0,2.54-.75,2.54-2,0-4.33-10.24-3.29-10.24-10.91,0-4.28,3.45-6.32,7.16-6.32a8.14,8.14,0,0,1,7.9,5.66Z" transform="translate(-14.31 -13.28)"/><path class="cls-1" d="M316.3,140.52h5.25v4.75H316.3Zm5.25,31.29H316.3V149.18h5.25Z" transform="translate(-14.31 -13.28)"/><path id="_Path_11" data-name="&lt;Path&gt;" class="cls-1" d="M324.12,154.42v-4.24h2.08V144h5.25v6.16h3.37v4.24h-3.37V166c0,1.13.95,1.67,2.37,1.67a8.78,8.78,0,0,0,1,0V172a17.81,17.81,0,0,1-3,.21c-3.41,0-5.66-1.24-5.66-4.49V154.42Z" transform="translate(-14.31 -13.28)"/><path id="_Path_12" data-name="&lt;Path&gt;" class="cls-1" d="M337.6,175.14a9.75,9.75,0,0,0,1.54.08c2.29,0,3.79-2,3.79-3a19.12,19.12,0,0,0-1-4.78l-5.24-18.26h5.32l3.54,15h.08l3.29-15h5.33l-6,22.55c-1.62,6.11-3.74,8.07-9,8.07-.5,0-1.08,0-1.67-.08Z" transform="translate(-14.31 -13.28)"/><path class="cls-1" d="M364.65,157.33c0-6,3.08-8.57,8.31-8.57s8.33,2.58,8.33,8.57v6.32c0,6-3.08,8.57-8.33,8.57s-8.31-2.58-8.31-8.57Zm5.24,7.66c0,1.75,1.25,2.66,3.07,2.66s3.09-.91,3.09-2.66v-9c0-1.74-1.26-2.67-3.09-2.67s-3.07.93-3.07,2.67Z" transform="translate(-14.31 -13.28)"/><path id="_Path_13" data-name="&lt;Path&gt;" class="cls-1" d="M393.77,145.93h-1.5a1.68,1.68,0,0,0-1.79,1.91v2.33h3.13v4.25h-3.13v17.39h-5.23V154.42h-2.38v-4.25h2.38V148c0-5.24,2.2-6.66,6-6.66a19.4,19.4,0,0,1,2.5.25Z" transform="translate(-14.31 -13.28)"/><polygon id="_Path_14" data-name="&lt;Path&gt;" class="cls-1" points="391.86 158.53 391.86 128.49 397.61 128.49 397.61 153.46 406.84 153.46 406.84 158.53 391.86 158.53"/><path class="cls-1" d="M423.1,157.33c0-6,3.08-8.57,8.32-8.57s8.32,2.58,8.32,8.57v6.32c0,6-3.07,8.57-8.32,8.57s-8.32-2.58-8.32-8.57Zm5.25,7.66c0,1.75,1.24,2.66,3.07,2.66s3.08-.91,3.08-2.66v-9c0-1.74-1.25-2.67-3.08-2.67s-3.07.93-3.07,2.67Z" transform="translate(-14.31 -13.28)"/><path id="_Path_15" data-name="&lt;Path&gt;" class="cls-1" d="M443.07,171.81V149.17h5.08v2.59c1.91-1.67,3.7-3,5.86-3,3.21,0,4.87,1.62,4.87,5.83v17.22h-5.24V155.16c0-1.49-.5-2.49-1.91-2.49-1.08,0-2.29,1-3.41,2v17.1Z" transform="translate(-14.31 -13.28)"/><path class="cls-1" d="M473.19,171.81v-2.75h-.08a7.43,7.43,0,0,1-5.57,3.16c-4.08,0-5.74-3.16-5.74-9v-5.49c0-5.83,1.66-9,5.74-9,1.41,0,2.74.67,5.24,2.5v-9.49H478v30Zm-.41-17.52a4.17,4.17,0,0,0-3.16-1.62c-1.42,0-2.58.92-2.58,5.41v4.83c0,4.49,1.16,5.41,2.58,5.41a4.15,4.15,0,0,0,3.16-1.63Z" transform="translate(-14.31 -13.28)"/><path class="cls-1" d="M480.52,157.33c0-6,3.08-8.57,8.32-8.57s8.32,2.58,8.32,8.57v6.32c0,6-3.08,8.57-8.32,8.57s-8.32-2.58-8.32-8.57Zm5.24,7.66c0,1.75,1.25,2.66,3.08,2.66s3.07-.91,3.07-2.66v-9c0-1.74-1.24-2.67-3.07-2.67s-3.08.93-3.08,2.67Z" transform="translate(-14.31 -13.28)"/><path id="_Path_16" data-name="&lt;Path&gt;" class="cls-1" d="M500.49,171.81V149.17h5.08v2.59c1.91-1.67,3.7-3,5.86-3,3.2,0,4.87,1.62,4.87,5.83v17.22h-5.24V155.16c0-1.49-.51-2.49-1.92-2.49-1.08,0-2.29,1-3.41,2v17.1Z" transform="translate(-14.31 -13.28)"/><path class="cls-1" d="M89.24,50.22A35.32,35.32,0,1,0,125,85.53,35.52,35.52,0,0,0,89.24,50.22m.3,67.82C74.9,118,63,103.41,63,85.37S74.9,52.71,89.54,52.71,116,67.34,116,85.37,104.17,118,89.54,118" transform="translate(-14.31 -13.28)"/><path id="_Compound_Path_" data-name="&lt;Compound Path&gt;" class="cls-2" d="M89.24,50.22A35.32,35.32,0,1,0,125,85.53,35.52,35.52,0,0,0,89.24,50.22Zm.3,67.82C74.9,118,63,103.41,63,85.37S74.9,52.71,89.54,52.71,116,67.34,116,85.37,104.17,118,89.54,118Z" transform="translate(-14.31 -13.28)"/><path id="_Path_17" data-name="&lt;Path&gt;" class="cls-1" d="M14.77,52.76S40.63,71,28.86,93.16c0,0,17.4-23.78,23.23,9.68a14.51,14.51,0,0,0-14.65-5.69C29,98.81,28,105.34,28,105.34Z" transform="translate(-14.31 -13.28)"/></g><g id="_Group_2" data-name="&lt;Group&gt;"><path id="_Path_18" data-name="&lt;Path&gt;" class="cls-3" d="M14.77,52.76S40.63,71,28.86,93.16c0,0,17.4-23.78,23.23,9.68a14.51,14.51,0,0,0-14.65-5.69C29,98.81,28,105.34,28,105.34Z" transform="translate(-14.31 -13.28)"/></g><g id="_Group_3" data-name="&lt;Group&gt;"><path id="_Path_19" data-name="&lt;Path&gt;" class="cls-1" d="M162.75,52.76S136.89,71,148.67,93.16c0,0-17.4-23.78-23.24,9.68a14.52,14.52,0,0,1,14.66-5.69c8.43,1.66,9.47,8.19,9.47,8.19Z" transform="translate(-14.31 -13.28)"/><path id="_Path_20" data-name="&lt;Path&gt;" class="cls-3" d="M162.75,52.76S136.89,71,148.67,93.16c0,0-17.4-23.78-23.24,9.68a14.52,14.52,0,0,1,14.66-5.69c8.43,1.66,9.47,8.19,9.47,8.19Z" transform="translate(-14.31 -13.28)"/><path id="_Path_21" data-name="&lt;Path&gt;" class="cls-1" d="M55.92,122.73c3.79-1.34,7.36-2.5,12-4.27A47.33,47.33,0,0,1,62,114c-4.57,1.64-8.79,3.28-11.43,4.18s-11.42,2.94-14.6-5.64c-2.32-6.29,2.15-10.3,6.47-10.3,1.61,0,3.26.61,3.25.83a4,4,0,1,0,4,4,5,5,0,0,0-2.2-4.07,12.13,12.13,0,0,0-6.6-2c-5.26,0-9.85,4.63-10.59,10-.85,6.08,5.81,18.75,25.63,11.75" transform="translate(-14.31 -13.28)"/><path id="_Path_22" data-name="&lt;Path&gt;" class="cls-2" d="M55.92,122.73c3.79-1.34,7.36-2.5,12-4.27A47.33,47.33,0,0,1,62,114c-4.57,1.64-8.79,3.28-11.43,4.18s-11.42,2.94-14.6-5.64c-2.32-6.29,2.15-10.3,6.47-10.3,1.61,0,3.26.61,3.25.83a4,4,0,1,0,4,4,5,5,0,0,0-2.2-4.07,12.13,12.13,0,0,0-6.6-2c-5.26,0-9.85,4.63-10.59,10C29.44,117.06,36.1,129.73,55.92,122.73Z" transform="translate(-14.31 -13.28)"/><path id="_Path_23" data-name="&lt;Path&gt;" class="cls-1" d="M35.28,132.9c-.8-2.78,2.24-5.06,6.75-5.06H137.3c4.5,0,7.54,2.28,6.74,5.06s-5.12,4.78-9.61,4.45l-36.71-2.72a131,131,0,0,0-16.34,0L44.9,137.35c-4.5.33-8.83-1.67-9.62-4.45" transform="translate(-14.31 -13.28)"/><path id="_Path_24" data-name="&lt;Path&gt;" class="cls-3" d="M35.28,132.9c-.8-2.78,2.24-5.06,6.75-5.06H137.3c4.5,0,7.54,2.28,6.74,5.06s-5.12,4.78-9.61,4.45l-36.71-2.72a131,131,0,0,0-16.34,0L44.9,137.35C40.4,137.68,36.07,135.68,35.28,132.9Z" transform="translate(-14.31 -13.28)"/><path id="_Path_25" data-name="&lt;Path&gt;" class="cls-1" d="M95,46.76c-3.83-5.55-1.56-9,1-9,4.12,0,5.62,2.35,5.6,6.07A9.87,9.87,0,0,0,105.94,36c0-3.16-2.45-6.1-5.6-6.13-3.86,0-5.84,1.19-7.61,3.22.29-.63.61-1.25.92-1.84A10.54,10.54,0,0,0,95.09,27a12.36,12.36,0,0,0-2-5.57c-1.08-2-2.62-4.89-3.65-7.36-1,2.49-2.5,5.42-3.56,7.41A12.14,12.14,0,0,0,84,27a10,10,0,0,0,1.49,4.27c.33.61.64,1.23,1,1.87-1.79-2.07-3.77-3.31-7.68-3.29-3.16,0-5.62,3-5.6,6.13a9.89,9.89,0,0,0,4.27,7.81c0-3.72,1.49-6,5.61-6.07,2.59,0,4.83,3.14.79,9a21.3,21.3,0,0,1,11.15,0" transform="translate(-14.31 -13.28)"/></g><g id="_Group_4" data-name="&lt;Group&gt;"><path id="_Path_26" data-name="&lt;Path&gt;" class="cls-3" d="M95,46.76c-3.83-5.55-1.56-9,1-9,4.12,0,5.62,2.35,5.6,6.07A9.87,9.87,0,0,0,105.94,36c0-3.16-2.45-6.1-5.6-6.13-3.86,0-5.84,1.19-7.61,3.22.29-.63.61-1.25.92-1.84A10.54,10.54,0,0,0,95.09,27a12.36,12.36,0,0,0-2-5.57c-1.08-2-2.62-4.89-3.65-7.36-1,2.49-2.5,5.42-3.56,7.41A12.14,12.14,0,0,0,84,27a10,10,0,0,0,1.49,4.27c.33.61.64,1.23,1,1.87-1.79-2.07-3.77-3.31-7.68-3.29-3.16,0-5.62,3-5.6,6.13a9.89,9.89,0,0,0,4.27,7.81c0-3.72,1.49-6,5.61-6.07,2.59,0,4.83,3.14.79,9A21.3,21.3,0,0,1,95,46.76Z" transform="translate(-14.31 -13.28)"/></g><g id="_Group_5" data-name="&lt;Group&gt;"><path id="_Path_27" data-name="&lt;Path&gt;" class="cls-1" d="M147.37,111.5c-.75-5.36-5.33-10-10.59-10a12,12,0,0,0-6.61,2,5,5,0,0,0-2.2,4.07,4,4,0,1,0,4-4c0-.21,1.64-.83,3.26-.83,4.31,0,8.79,4,6.46,10.31-3.18,8.58-11.92,6.55-14.6,5.64s-14.56-5.45-19.13-7.09c-.07.07-.17.14-.25.21-10.9-4-12.67-4.59-17.87-5.67-16.75-3.48-17.92,7.64-17.92,7.64,0,.38,1.42-4.92,12.52-3.78,4.55.46,7.25,1.71,17.73,6l-.12.08c4.64,1.77,15.9,5.84,19.69,7.18,19.82,7,26.48-5.68,25.64-11.75" transform="translate(-14.31 -13.28)"/><path id="_Path_28" data-name="&lt;Path&gt;" class="cls-2" d="M147.37,111.5c-.75-5.36-5.33-10-10.59-10a12,12,0,0,0-6.61,2,5,5,0,0,0-2.2,4.07,4,4,0,1,0,4-4c0-.21,1.64-.83,3.26-.83,4.31,0,8.79,4,6.46,10.31-3.18,8.58-11.92,6.55-14.6,5.64s-14.56-5.45-19.13-7.09c-.07.07-.17.14-.25.21-10.9-4-12.67-4.59-17.87-5.67-16.75-3.48-17.92,7.64-17.92,7.64,0,.38,1.42-4.92,12.52-3.78,4.55.46,7.25,1.71,17.73,6l-.12.08c4.64,1.77,15.9,5.84,19.69,7.18C141.55,130.24,148.21,117.57,147.37,111.5Z" transform="translate(-14.31 -13.28)"/></g></svg>